<svg width="24" height="24" viewBox="0 0 24 24" fill="none" xmlns="http://www.w3.org/2000/svg">
<path fill-rule="evenodd" clip-rule="evenodd" d="M20.5281 6.08847C20.7952 6.79724 20.937 7.54709 20.9471 8.30447C21.0028 9.25706 21.0031 9.5686 21.005 11.9798L21.0051 12.0135C21.0051 14.4565 20.9921 14.7615 20.9491 15.7235C20.9341 16.4725 20.7931 17.2105 20.5301 17.9105C20.2982 18.5082 19.9442 19.051 19.4909 19.5043C19.0376 19.9576 18.4948 20.3116 17.8971 20.5435C17.1974 20.8061 16.4582 20.9478 15.7111 20.9625C14.7561 21.0185 14.4431 21.0185 12.0011 21.0185C9.55907 21.0185 9.25407 21.0055 8.29107 20.9625C7.54244 20.9378 6.8035 20.7857 6.10607 20.5125C5.50813 20.281 4.96505 19.9274 4.51151 19.4742C4.05797 19.021 3.70395 18.4782 3.47207 17.8805C3.20907 17.1795 3.06807 16.4415 3.05307 15.6935C2.99707 14.7375 2.99707 14.4255 2.99707 11.9835C2.99707 9.54147 3.01007 9.23647 3.05307 8.27347C3.06719 7.52658 3.2089 6.7876 3.47207 6.08847C3.70356 5.49053 4.05732 4.94749 4.5107 4.4941C4.96409 4.04071 5.50713 3.68696 6.10507 3.45547C6.80442 3.19294 7.54323 3.05092 8.29007 3.03547C9.24507 2.98047 9.55807 2.98047 12.0001 2.98047C14.4421 2.98047 14.7471 2.99247 15.7091 3.03547C16.4562 3.05081 17.1954 3.19283 17.8951 3.45547C18.4929 3.68712 19.0359 4.04093 19.4892 4.4943C19.9426 4.94767 20.2964 5.49062 20.5281 6.08847ZM7.37107 11.9785C7.37107 14.5325 9.44007 16.6015 11.9941 16.6015C13.2202 16.6015 14.396 16.1144 15.263 15.2474C16.13 14.3804 16.6171 13.2046 16.6171 11.9785C16.6171 10.7524 16.13 9.5765 15.263 8.70951C14.396 7.84253 13.2202 7.35547 11.9941 7.35547C9.44007 7.35547 7.37107 9.42447 7.37107 11.9785ZM15.7231 7.18447C15.7231 7.78047 16.2041 8.26247 16.8011 8.26247C17.3961 8.26247 17.8781 7.78047 17.8781 7.18447C17.8781 7.04297 17.8502 6.90286 17.7961 6.77213C17.7419 6.6414 17.6625 6.52262 17.5625 6.42256C17.4624 6.32251 17.3436 6.24314 17.2129 6.18899C17.0822 6.13484 16.9421 6.10697 16.8006 6.10697C16.6591 6.10697 16.519 6.13484 16.3882 6.18899C16.2575 6.24314 16.1387 6.32251 16.0387 6.42256C15.9386 6.52262 15.8592 6.6414 15.8051 6.77213C15.7509 6.90286 15.7231 7.04297 15.7231 7.18447ZM14.997 11.9786C14.997 13.6371 13.6525 14.9816 11.994 14.9816C10.3355 14.9816 8.99097 13.6371 8.99097 11.9786C8.99097 10.3201 10.3355 8.97559 11.994 8.97559C13.6525 8.97559 14.997 10.3201 14.997 11.9786Z" fill="url(#paint0_radial)"/>
<defs>
<radialGradient id="paint0_radial" cx="0" cy="0" r="1" gradientUnits="userSpaceOnUse" gradientTransform="translate(17.5 20.9995) rotate(-124.077) scale(20.5244 20.4902)">
<stop stop-color="#FFD353"/>
<stop offset="0.442708" stop-color="#E7476E"/>
<stop offset="1" stop-color="#3E5BED"/>
</radialGradient>
</defs>
</svg>
