<svg width="205" height="84" viewBox="0 0 205 84" fill="none" xmlns="http://www.w3.org/2000/svg">
<circle cx="42" cy="42" r="42" fill="#B8E8D1"/>
<path d="M34.6992 33H28.582V16.0898H34.6641C36.1172 16.0898 37.293 16.4727 38.1914 17.2383C39.0898 18.0039 39.5391 19.0117 39.5391 20.2617C39.5391 21.1992 39.2461 22.0273 38.6602 22.7461C38.082 23.4648 37.3438 23.9062 36.4453 24.0703V24.1523C37.6328 24.293 38.5898 24.7422 39.3164 25.5C40.0508 26.25 40.418 27.2031 40.418 28.3594C40.418 29.8047 39.9102 30.9414 38.8945 31.7695C37.8789 32.5898 36.4805 33 34.6992 33ZM30.1758 17.5078V23.6016H33.8555C35.1367 23.6016 36.1328 23.3242 36.8438 22.7695C37.5625 22.2148 37.9219 21.4375 37.9219 20.4375C37.9219 19.5156 37.6016 18.7969 36.9609 18.2812C36.3281 17.7656 35.4492 17.5078 34.3242 17.5078H30.1758ZM30.1758 31.582H34.4766C35.8516 31.582 36.9102 31.2969 37.6523 30.7266C38.4023 30.1484 38.7773 29.332 38.7773 28.2773C38.7773 27.2227 38.3867 26.4102 37.6055 25.8398C36.832 25.2695 35.7188 24.9844 34.2656 24.9844H30.1758V31.582ZM52.9219 31.5469V33H42.7148V16.0898H52.9219V17.543H44.3086V23.625H52.4883V25.0547H44.3086V31.5469H52.9219ZM66.8906 33L65.0156 27.8203H57.9141L56.0391 33H54.3398L60.668 16.0898H62.2617L68.5781 33H66.8906ZM61.4297 18.0703L58.3945 26.4375H64.5352L61.5 18.0703H61.4297ZM71.9648 16.0898V27C71.9648 28.4375 72.4062 29.5938 73.2891 30.4688C74.1719 31.3438 75.3789 31.7812 76.9102 31.7812C78.4414 31.7812 79.6484 31.3438 80.5312 30.4688C81.4141 29.5938 81.8555 28.4375 81.8555 27V16.0898H83.4609V27.0938C83.4609 28.9375 82.8711 30.4297 81.6914 31.5703C80.5117 32.7031 78.918 33.2695 76.9102 33.2695C74.9023 33.2695 73.3086 32.7031 72.1289 31.5703C70.957 30.4297 70.3711 28.9375 70.3711 27.0938V16.0898H71.9648ZM92.6602 33H91.0547V17.543H85.4766V16.0898H98.25V17.543H92.6602V33ZM106.688 33H105.082V25.6875L99.0234 16.0898H100.852L105.855 24.1172H105.914L110.918 16.0898H112.746L106.688 25.6875V33ZM34.6992 56H28.582V39.0898H34.6641C36.1172 39.0898 37.293 39.4727 38.1914 40.2383C39.0898 41.0039 39.5391 42.0117 39.5391 43.2617C39.5391 44.1992 39.2461 45.0273 38.6602 45.7461C38.082 46.4648 37.3438 46.9062 36.4453 47.0703V47.1523C37.6328 47.293 38.5898 47.7422 39.3164 48.5C40.0508 49.25 40.418 50.2031 40.418 51.3594C40.418 52.8047 39.9102 53.9414 38.8945 54.7695C37.8789 55.5898 36.4805 56 34.6992 56ZM30.1758 40.5078V46.6016H33.8555C35.1367 46.6016 36.1328 46.3242 36.8438 45.7695C37.5625 45.2148 37.9219 44.4375 37.9219 43.4375C37.9219 42.5156 37.6016 41.7969 36.9609 41.2812C36.3281 40.7656 35.4492 40.5078 34.3242 40.5078H30.1758ZM30.1758 54.582H34.4766C35.8516 54.582 36.9102 54.2969 37.6523 53.7266C38.4023 53.1484 38.7773 52.332 38.7773 51.2773C38.7773 50.2227 38.3867 49.4102 37.6055 48.8398C36.832 48.2695 35.7188 47.9844 34.2656 47.9844H30.1758V54.582ZM53.9531 56L52.0781 50.8203H44.9766L43.1016 56H41.4023L47.7305 39.0898H49.3242L55.6406 56H53.9531ZM48.4922 41.0703L45.457 49.4375H51.5977L48.5625 41.0703H48.4922ZM59.0977 40.5195V47.6562H63.3398C64.5742 47.6562 65.5312 47.3438 66.2109 46.7188C66.8906 46.0938 67.2305 45.2148 67.2305 44.082C67.2305 42.9648 66.8789 42.0938 66.1758 41.4688C65.4805 40.8359 64.5156 40.5195 63.2812 40.5195H59.0977ZM59.0977 49.0742V56H57.5039V39.0898H63.4688C65.1172 39.0898 66.4297 39.5391 67.4062 40.4375C68.3906 41.3281 68.8828 42.5273 68.8828 44.0352C68.8828 45.2305 68.5625 46.2539 67.9219 47.1055C67.2812 47.957 66.3945 48.5273 65.2617 48.8164L69.3633 56H67.4883L63.5977 49.0742H63.3398H59.0977Z" fill="#333333"/>
<path d="M33.958 71.3916H33.333V70H27.708V62.9541H28.3721V69.3945H32.3955V62.9541H33.0645V69.3945H33.958V71.3916ZM39.1387 69.3945V70H34.8857V62.9541H39.1387V63.5596H35.5498V66.0938H38.958V66.6895H35.5498V69.3945H39.1387ZM45.7891 70H45.1201V66.6943H40.999V70H40.335V62.9541H40.999V66.0889H45.1201V62.9541H45.7891V70ZM49.7295 70H49.0605V63.5596H46.7363V62.9541H52.0586V63.5596H49.7295V70ZM53.001 62.9541H55.3984C56.0723 62.9541 56.6175 63.1559 57.0342 63.5596C57.4508 63.9632 57.6592 64.4922 57.6592 65.1465C57.6592 65.8008 57.4492 66.3314 57.0293 66.7383C56.6094 67.1419 56.0641 67.3438 55.3936 67.3438H53.665V70H53.001V62.9541ZM53.665 63.5498V66.748H55.2422C55.7826 66.748 56.2057 66.6064 56.5117 66.3232C56.821 66.04 56.9756 65.6478 56.9756 65.1465C56.9756 64.6452 56.8226 64.2546 56.5166 63.9746C56.2106 63.6914 55.7858 63.5498 55.2422 63.5498H53.665ZM66.1309 70H65.4717V63.5645H61.4336V70H60.7646V62.9541H66.1309V70ZM70.4668 62.8418C71.4499 62.8418 72.2295 63.1689 72.8057 63.8232C73.3818 64.4775 73.6699 65.363 73.6699 66.4795C73.6699 67.596 73.3818 68.4814 72.8057 69.1357C72.2295 69.7868 71.4499 70.1123 70.4668 70.1123C69.4837 70.1123 68.7041 69.7868 68.1279 69.1357C67.555 68.4814 67.2686 67.596 67.2686 66.4795C67.2686 65.363 67.5566 64.4775 68.1328 63.8232C68.709 63.1689 69.487 62.8418 70.4668 62.8418ZM72.3027 64.2773C71.8503 63.7337 71.2383 63.4619 70.4668 63.4619C69.6953 63.4619 69.0833 63.7337 68.6309 64.2773C68.1784 64.821 67.9521 65.555 67.9521 66.4795C67.9521 67.404 68.1784 68.138 68.6309 68.6816C69.0833 69.222 69.6953 69.4922 70.4668 69.4922C71.2383 69.4922 71.8503 69.2204 72.3027 68.6768C72.7585 68.1331 72.9863 67.4007 72.9863 66.4795C72.9863 65.555 72.7585 64.821 72.3027 64.2773ZM79.4072 70H76.8584V62.9541H79.3926C79.998 62.9541 80.488 63.1136 80.8623 63.4326C81.2367 63.7516 81.4238 64.1715 81.4238 64.6924C81.4238 65.083 81.3018 65.4281 81.0576 65.7275C80.8167 66.027 80.5091 66.2109 80.1348 66.2793V66.3135C80.6296 66.3721 81.0283 66.5592 81.3311 66.875C81.637 67.1875 81.79 67.5846 81.79 68.0664C81.79 68.6686 81.5785 69.1423 81.1553 69.4873C80.7321 69.8291 80.1494 70 79.4072 70ZM77.5225 63.5449V66.084H79.0557C79.5895 66.084 80.0046 65.9684 80.3008 65.7373C80.6003 65.5062 80.75 65.1823 80.75 64.7656C80.75 64.3815 80.6165 64.082 80.3496 63.8672C80.0859 63.6523 79.7197 63.5449 79.251 63.5449H77.5225ZM77.5225 69.4092H79.3145C79.8874 69.4092 80.3285 69.2904 80.6377 69.0527C80.9502 68.8118 81.1064 68.4717 81.1064 68.0322C81.1064 67.5928 80.9437 67.2542 80.6182 67.0166C80.2959 66.779 79.832 66.6602 79.2266 66.6602H77.5225V69.4092ZM85.7598 62.8418C86.7428 62.8418 87.5225 63.1689 88.0986 63.8232C88.6748 64.4775 88.9629 65.363 88.9629 66.4795C88.9629 67.596 88.6748 68.4814 88.0986 69.1357C87.5225 69.7868 86.7428 70.1123 85.7598 70.1123C84.7767 70.1123 83.9971 69.7868 83.4209 69.1357C82.848 68.4814 82.5615 67.596 82.5615 66.4795C82.5615 65.363 82.8496 64.4775 83.4258 63.8232C84.002 63.1689 84.7799 62.8418 85.7598 62.8418ZM87.5957 64.2773C87.1432 63.7337 86.5312 63.4619 85.7598 63.4619C84.9883 63.4619 84.3763 63.7337 83.9238 64.2773C83.4714 64.821 83.2451 65.555 83.2451 66.4795C83.2451 67.404 83.4714 68.138 83.9238 68.6816C84.3763 69.222 84.9883 69.4922 85.7598 69.4922C86.5312 69.4922 87.1432 69.2204 87.5957 68.6768C88.0514 68.1331 88.2793 67.4007 88.2793 66.4795C88.2793 65.555 88.0514 64.821 87.5957 64.2773ZM92.957 70.1123C91.9967 70.1123 91.2334 69.7835 90.667 69.126C90.1006 68.4652 89.8174 67.5765 89.8174 66.46C89.8174 65.3564 90.1006 64.4775 90.667 63.8232C91.2367 63.1689 92 62.8418 92.957 62.8418C93.6895 62.8418 94.3193 63.0534 94.8467 63.4766C95.3773 63.8965 95.6963 64.4401 95.8037 65.1074H95.125C95.0176 64.6224 94.762 64.2269 94.3584 63.9209C93.958 63.6149 93.4909 63.4619 92.957 63.4619C92.2083 63.4619 91.611 63.7337 91.165 64.2773C90.7223 64.8177 90.501 65.5452 90.501 66.46C90.501 67.3877 90.7223 68.125 91.165 68.6719C91.611 69.2188 92.21 69.4922 92.9619 69.4922C93.512 69.4922 93.9808 69.3587 94.3682 69.0918C94.7588 68.8216 95.0094 68.4554 95.1201 67.9932H95.7988C95.6654 68.654 95.3464 69.1732 94.8418 69.5508C94.3372 69.9251 93.709 70.1123 92.957 70.1123ZM99.7344 70.1123C98.7741 70.1123 98.0107 69.7835 97.4443 69.126C96.8779 68.4652 96.5947 67.5765 96.5947 66.46C96.5947 65.3564 96.8779 64.4775 97.4443 63.8232C98.014 63.1689 98.7773 62.8418 99.7344 62.8418C100.467 62.8418 101.097 63.0534 101.624 63.4766C102.155 63.8965 102.474 64.4401 102.581 65.1074H101.902C101.795 64.6224 101.539 64.2269 101.136 63.9209C100.735 63.6149 100.268 63.4619 99.7344 63.4619C98.9857 63.4619 98.3883 63.7337 97.9424 64.2773C97.4997 64.8177 97.2783 65.5452 97.2783 66.46C97.2783 67.3877 97.4997 68.125 97.9424 68.6719C98.3883 69.2188 98.9873 69.4922 99.7393 69.4922C100.289 69.4922 100.758 69.3587 101.146 69.0918C101.536 68.8216 101.787 68.4554 101.897 67.9932H102.576C102.443 68.654 102.124 69.1732 101.619 69.5508C101.115 69.9251 100.486 70.1123 99.7344 70.1123ZM105.794 70H105.125V63.5596H102.801V62.9541H108.123V63.5596H105.794V70ZM112.82 70L112.039 67.8418H109.08L108.299 70H107.591L110.228 62.9541H110.892L113.523 70H112.82ZM110.545 63.7793L109.28 67.2656H111.839L110.574 63.7793H110.545ZM119.852 70H119.183V66.6943H115.062V70H114.397V62.9541H115.062V66.0889H119.183V62.9541H119.852V70ZM124.188 62.8418C125.171 62.8418 125.95 63.1689 126.526 63.8232C127.103 64.4775 127.391 65.363 127.391 66.4795C127.391 67.596 127.103 68.4814 126.526 69.1357C125.95 69.7868 125.171 70.1123 124.188 70.1123C123.204 70.1123 122.425 69.7868 121.849 69.1357C121.276 68.4814 120.989 67.596 120.989 66.4795C120.989 65.363 121.277 64.4775 121.854 63.8232C122.43 63.1689 123.208 62.8418 124.188 62.8418ZM126.023 64.2773C125.571 63.7337 124.959 63.4619 124.188 63.4619C123.416 63.4619 122.804 63.7337 122.352 64.2773C121.899 64.821 121.673 65.555 121.673 66.4795C121.673 67.404 121.899 68.138 122.352 68.6816C122.804 69.222 123.416 69.4922 124.188 69.4922C124.959 69.4922 125.571 69.2204 126.023 68.6768C126.479 68.1331 126.707 67.4007 126.707 66.4795C126.707 65.555 126.479 64.821 126.023 64.2773ZM131.077 70H128.528V62.9541H131.062C131.668 62.9541 132.158 63.1136 132.532 63.4326C132.907 63.7516 133.094 64.1715 133.094 64.6924C133.094 65.083 132.972 65.4281 132.728 65.7275C132.487 66.027 132.179 66.2109 131.805 66.2793V66.3135C132.299 66.3721 132.698 66.5592 133.001 66.875C133.307 67.1875 133.46 67.5846 133.46 68.0664C133.46 68.6686 133.248 69.1423 132.825 69.4873C132.402 69.8291 131.819 70 131.077 70ZM129.192 63.5449V66.084H130.726C131.259 66.084 131.674 65.9684 131.971 65.7373C132.27 65.5062 132.42 65.1823 132.42 64.7656C132.42 64.3815 132.286 64.082 132.02 63.8672C131.756 63.6523 131.39 63.5449 130.921 63.5449H129.192ZM129.192 69.4092H130.984C131.557 69.4092 131.998 69.2904 132.308 69.0527C132.62 68.8118 132.776 68.4717 132.776 68.0322C132.776 67.5928 132.614 67.2542 132.288 67.0166C131.966 66.779 131.502 66.6602 130.896 66.6602H129.192V69.4092ZM139.49 70H138.821V63.5596H136.004L135.76 67.5098C135.708 68.3626 135.553 68.999 135.296 69.4189C135.042 69.8356 134.653 70.0439 134.129 70.0439C134.025 70.0439 133.919 70.0277 133.812 69.9951V69.3945C133.873 69.4173 133.961 69.4287 134.075 69.4287C134.41 69.4287 134.66 69.2708 134.822 68.9551C134.985 68.6361 135.086 68.1429 135.125 67.4756L135.389 62.9541H139.49V70ZM145.164 69.3945V70H140.911V62.9541H145.164V63.5596H141.575V66.0938H144.983V66.6895H141.575V69.3945H145.164ZM151.814 70H151.146V66.6943H147.024V70H146.36V62.9541H147.024V66.0889H151.146V62.9541H151.814V70ZM158.06 70V64.0527H158.001L153.895 70H153.235V62.9541H153.895V68.916H153.953L158.06 62.9541H158.719V70H158.06ZM165.32 70.1465C164.383 70.1465 163.637 69.8389 163.084 69.2236C162.531 68.6051 162.236 67.762 162.2 66.6943H160.804V70H160.14V62.9541H160.804V66.0889H162.205C162.27 65.07 162.579 64.2692 163.133 63.6865C163.686 63.1006 164.415 62.8076 165.32 62.8076C166.284 62.8076 167.044 63.1364 167.601 63.7939C168.16 64.4515 168.44 65.3451 168.44 66.4746C168.44 67.6042 168.162 68.4993 167.605 69.1602C167.049 69.8177 166.287 70.1465 165.32 70.1465ZM165.32 63.4277C164.572 63.4277 163.976 63.7028 163.533 64.2529C163.094 64.7998 162.874 65.5404 162.874 66.4746C162.874 67.4056 163.092 68.1478 163.528 68.7012C163.968 69.2513 164.565 69.5264 165.32 69.5264C166.069 69.5264 166.661 69.2513 167.098 68.7012C167.537 68.1478 167.757 67.4056 167.757 66.4746C167.757 65.5404 167.539 64.7998 167.103 64.2529C166.666 63.7028 166.072 63.4277 165.32 63.4277ZM174.173 70H171.624V62.9541H174.158C174.764 62.9541 175.254 63.1136 175.628 63.4326C176.002 63.7516 176.189 64.1715 176.189 64.6924C176.189 65.083 176.067 65.4281 175.823 65.7275C175.582 66.027 175.275 66.2109 174.9 66.2793V66.3135C175.395 66.3721 175.794 66.5592 176.097 66.875C176.403 67.1875 176.556 67.5846 176.556 68.0664C176.556 68.6686 176.344 69.1423 175.921 69.4873C175.498 69.8291 174.915 70 174.173 70ZM172.288 63.5449V66.084H173.821C174.355 66.084 174.77 65.9684 175.066 65.7373C175.366 65.5062 175.516 65.1823 175.516 64.7656C175.516 64.3815 175.382 64.082 175.115 63.8672C174.852 63.6523 174.485 63.5449 174.017 63.5449H172.288ZM172.288 69.4092H174.08C174.653 69.4092 175.094 69.2904 175.403 69.0527C175.716 68.8118 175.872 68.4717 175.872 68.0322C175.872 67.5928 175.709 67.2542 175.384 67.0166C175.062 66.779 174.598 66.6602 173.992 66.6602H172.288V69.4092ZM180.525 62.8418C181.508 62.8418 182.288 63.1689 182.864 63.8232C183.44 64.4775 183.729 65.363 183.729 66.4795C183.729 67.596 183.44 68.4814 182.864 69.1357C182.288 69.7868 181.508 70.1123 180.525 70.1123C179.542 70.1123 178.763 69.7868 178.187 69.1357C177.614 68.4814 177.327 67.596 177.327 66.4795C177.327 65.363 177.615 64.4775 178.191 63.8232C178.768 63.1689 179.546 62.8418 180.525 62.8418ZM182.361 64.2773C181.909 63.7337 181.297 63.4619 180.525 63.4619C179.754 63.4619 179.142 63.7337 178.689 64.2773C178.237 64.821 178.011 65.555 178.011 66.4795C178.011 67.404 178.237 68.138 178.689 68.6816C179.142 69.222 179.754 69.4922 180.525 69.4922C181.297 69.4922 181.909 69.2204 182.361 68.6768C182.817 68.1331 183.045 67.4007 183.045 66.4795C183.045 65.555 182.817 64.821 182.361 64.2773ZM189.578 70H188.909V63.5596H186.092L185.848 67.5098C185.796 68.3626 185.641 68.999 185.384 69.4189C185.13 69.8356 184.741 70.0439 184.217 70.0439C184.113 70.0439 184.007 70.0277 183.899 69.9951V69.3945C183.961 69.4173 184.049 69.4287 184.163 69.4287C184.498 69.4287 184.747 69.2708 184.91 68.9551C185.073 68.6361 185.174 68.1429 185.213 67.4756L185.477 62.9541H189.578V70ZM193.914 62.8418C194.897 62.8418 195.677 63.1689 196.253 63.8232C196.829 64.4775 197.117 65.363 197.117 66.4795C197.117 67.596 196.829 68.4814 196.253 69.1357C195.677 69.7868 194.897 70.1123 193.914 70.1123C192.931 70.1123 192.151 69.7868 191.575 69.1357C191.002 68.4814 190.716 67.596 190.716 66.4795C190.716 65.363 191.004 64.4775 191.58 63.8232C192.156 63.1689 192.934 62.8418 193.914 62.8418ZM195.75 64.2773C195.298 63.7337 194.686 63.4619 193.914 63.4619C193.143 63.4619 192.531 63.7337 192.078 64.2773C191.626 64.821 191.399 65.555 191.399 66.4795C191.399 67.404 191.626 68.138 192.078 68.6816C192.531 69.222 193.143 69.4922 193.914 69.4922C194.686 69.4922 195.298 69.2204 195.75 68.6768C196.206 68.1331 196.434 67.4007 196.434 66.4795C196.434 65.555 196.206 64.821 195.75 64.2773ZM201.111 70.1123C200.151 70.1123 199.388 69.7835 198.821 69.126C198.255 68.4652 197.972 67.5765 197.972 66.46C197.972 65.3564 198.255 64.4775 198.821 63.8232C199.391 63.1689 200.154 62.8418 201.111 62.8418C201.844 62.8418 202.474 63.0534 203.001 63.4766C203.532 63.8965 203.851 64.4401 203.958 65.1074H203.279C203.172 64.6224 202.916 64.2269 202.513 63.9209C202.112 63.6149 201.645 63.4619 201.111 63.4619C200.363 63.4619 199.765 63.7337 199.319 64.2773C198.877 64.8177 198.655 65.5452 198.655 66.46C198.655 67.3877 198.877 68.125 199.319 68.6719C199.765 69.2188 200.364 69.4922 201.116 69.4922C201.666 69.4922 202.135 69.3587 202.522 69.0918C202.913 68.8216 203.164 68.4554 203.274 67.9932H203.953C203.82 68.654 203.501 69.1732 202.996 69.5508C202.492 69.9251 201.863 70.1123 201.111 70.1123Z" fill="#333333"/>
</svg>
